<?xml version="1.0" encoding="UTF-8" standalone="no"?>
<!-- Created with Inkscape (http://www.inkscape.org/) -->

<svg
   xmlns:dc="http://purl.org/dc/elements/1.1/"
   xmlns:cc="http://creativecommons.org/ns#"
   xmlns:rdf="http://www.w3.org/1999/02/22-rdf-syntax-ns#"
   xmlns:svg="http://www.w3.org/2000/svg"
   xmlns="http://www.w3.org/2000/svg"
   xmlns:xlink="http://www.w3.org/1999/xlink"
   xmlns:sodipodi="http://sodipodi.sourceforge.net/DTD/sodipodi-0.dtd"
   xmlns:inkscape="http://www.inkscape.org/namespaces/inkscape"
   width="547.47571"
   height="326.03812"
   id="svg2"
   sodipodi:version="0.32"
   inkscape:version="0.48.5 r10040"
   sodipodi:docname="componentes_troquel.svg"
   inkscape:output_extension="org.inkscape.output.svg.inkscape"
   version="1.0">
  <defs
     id="defs4">
    <pattern
       inkscape:collect="always"
       xlink:href="#pattern6307"
       id="pattern3236"
       patternTransform="translate(84.037828,197.23616)" />
    <linearGradient
       inkscape:collect="always"
       id="linearGradient6433">
      <stop
         style="stop-color:#000000;stop-opacity:1;"
         offset="0"
         id="stop6435" />
      <stop
         style="stop-color:#000000;stop-opacity:0;"
         offset="1"
         id="stop6437" />
    </linearGradient>
    <linearGradient
       id="linearGradient5320">
      <stop
         style="stop-color:#800000;stop-opacity:1;"
         offset="0"
         id="stop5322" />
      <stop
         id="stop5328"
         offset="0.5"
         style="stop-color:#ffffff;stop-opacity:1;" />
      <stop
         style="stop-color:#800000;stop-opacity:1;"
         offset="1"
         id="stop5324" />
    </linearGradient>
    <pattern
       inkscape:collect="always"
       xlink:href="#pattern3166"
       id="pattern3171"
       patternTransform="matrix(-1,0,0,1,665.75732,196.89918)" />
    <pattern
       inkscape:collect="always"
       xlink:href="#pattern6307"
       id="pattern3166"
       patternTransform="matrix(-1,0,0,1,665.35683,196.89918)" />
    <marker
       inkscape:stockid="Dot_m"
       orient="auto"
       refY="0"
       refX="0"
       id="Dot_m"
       style="overflow:visible">
      <path
         id="path3220"
         d="M -2.5,-1 C -2.5,1.76 -4.74,4 -7.5,4 C -10.26,4 -12.5,1.76 -12.5,-1 C -12.5,-3.76 -10.26,-6 -7.5,-6 C -4.74,-6 -2.5,-3.76 -2.5,-1 z "
         style="fill-rule:evenodd;stroke:#000000;stroke-width:1pt;marker-start:none;marker-end:none"
         transform="matrix(0.4,0,0,0.4,2.96,0.4)" />
    </marker>
    <marker
       inkscape:stockid="Tail"
       orient="auto"
       refY="0"
       refX="0"
       id="Tail"
       style="overflow:visible">
      <g
         id="g3191"
         transform="scale(-1.2,-1.2)">
        <path
           id="path3193"
           d="M -3.8048674,-3.9585227 L 0.54352094,0"
           style="fill:none;fill-rule:evenodd;stroke:#000000;stroke-width:0.80000001;stroke-linecap:round;marker-start:none;marker-end:none" />
        <path
           id="path3195"
           d="M -1.2866832,-3.9585227 L 3.0617053,0"
           style="fill:none;fill-rule:evenodd;stroke:#000000;stroke-width:0.80000001;stroke-linecap:round;marker-start:none;marker-end:none" />
        <path
           id="path3197"
           d="M 1.3053582,-3.9585227 L 5.6537466,0"
           style="fill:none;fill-rule:evenodd;stroke:#000000;stroke-width:0.80000001;stroke-linecap:round;marker-start:none;marker-end:none" />
        <path
           id="path3199"
           d="M -3.8048674,4.1775838 L 0.54352094,0.21974226"
           style="fill:none;fill-rule:evenodd;stroke:#000000;stroke-width:0.80000001;stroke-linecap:round;marker-start:none;marker-end:none" />
        <path
           id="path3201"
           d="M -1.2866832,4.1775838 L 3.0617053,0.21974226"
           style="fill:none;fill-rule:evenodd;stroke:#000000;stroke-width:0.80000001;stroke-linecap:round;marker-start:none;marker-end:none" />
        <path
           id="path3203"
           d="M 1.3053582,4.1775838 L 5.6537466,0.21974226"
           style="fill:none;fill-rule:evenodd;stroke:#000000;stroke-width:0.80000001;stroke-linecap:round;marker-start:none;marker-end:none" />
      </g>
    </marker>
    <marker
       inkscape:stockid="Arrow1Lstart"
       orient="auto"
       refY="0"
       refX="0"
       id="Arrow1Lstart"
       style="overflow:visible">
      <path
         id="path3155"
         d="M 0,0 L 5,-5 L -12.5,0 L 5,5 L 0,0 z "
         style="fill-rule:evenodd;stroke:#000000;stroke-width:1pt;marker-start:none"
         transform="matrix(0.8,0,0,0.8,10,0)" />
    </marker>
    <pattern
       patternUnits="userSpaceOnUse"
       width="5.999"
       height="5.999"
       patternTransform="translate(217.9174,197.29967)"
       id="pattern6307">
      <path
         sodipodi:nodetypes="ccc"
         id="rect4366"
         d="M 5.4995,0.49950001 L 0.49950001,5.4995 L 5.4995,0.49950001 z "
         style="fill:none;fill-opacity:0.52513966;stroke:#000000;stroke-width:0.99900001;stroke-linecap:butt;stroke-linejoin:bevel;stroke-miterlimit:4;stroke-dasharray:none;stroke-dashoffset:0;stroke-opacity:1" />
    </pattern>
    <linearGradient
       inkscape:collect="always"
       xlink:href="#linearGradient5320"
       id="linearGradient3156"
       gradientUnits="userSpaceOnUse"
       gradientTransform="matrix(-0.05819833,0.01077756,0.00800993,0.07830728,467.81586,225.65887)"
       x1="501.00406"
       y1="460.69177"
       x2="501.52176"
       y2="497.25589" />
    <linearGradient
       inkscape:collect="always"
       xlink:href="#linearGradient5320"
       id="linearGradient3158"
       gradientUnits="userSpaceOnUse"
       gradientTransform="matrix(-0.05819833,0.01077756,0.00800993,0.07830728,467.81586,219.8822)"
       x1="501.00406"
       y1="460.69177"
       x2="501.52176"
       y2="497.25589" />
    <linearGradient
       inkscape:collect="always"
       xlink:href="#linearGradient5320"
       id="linearGradient3160"
       gradientUnits="userSpaceOnUse"
       gradientTransform="matrix(0.05819833,0.01077756,-0.00800993,0.07830728,416.35213,217.04942)"
       x1="501.00406"
       y1="460.69177"
       x2="501.52176"
       y2="497.25589" />
    <linearGradient
       inkscape:collect="always"
       xlink:href="#linearGradient5320"
       id="linearGradient3162"
       gradientUnits="userSpaceOnUse"
       gradientTransform="matrix(0.05819833,0.01077756,-0.00800993,0.07830728,416.35213,228.49165)"
       x1="501.00406"
       y1="460.69177"
       x2="501.52176"
       y2="497.25589" />
    <linearGradient
       inkscape:collect="always"
       xlink:href="#linearGradient5320"
       id="linearGradient3164"
       gradientUnits="userSpaceOnUse"
       gradientTransform="matrix(0.05819833,0.01077756,-0.00800993,0.07830728,416.35212,222.77053)"
       x1="501.00406"
       y1="460.69177"
       x2="501.52176"
       y2="497.25589" />
    <linearGradient
       inkscape:collect="always"
       xlink:href="#linearGradient6433"
       id="linearGradient3166"
       gradientUnits="userSpaceOnUse"
       spreadMethod="reflect"
       x1="426.84378"
       y1="266.33508"
       x2="441.00815"
       y2="266.30484" />
  </defs>
  <sodipodi:namedview
     id="base"
     pagecolor="#ffffff"
     bordercolor="#666666"
     borderopacity="1.0"
     gridtolerance="10000"
     guidetolerance="10"
     objecttolerance="10"
     inkscape:pageopacity="0.0"
     inkscape:pageshadow="2"
     inkscape:zoom="1.3917182"
     inkscape:cx="289.90493"
     inkscape:cy="167.41895"
     inkscape:document-units="px"
     inkscape:current-layer="layer1"
     inkscape:window-width="1366"
     inkscape:window-height="705"
     inkscape:window-x="-4"
     inkscape:window-y="-4"
     showgrid="false"
     inkscape:window-maximized="1" />
  <metadata
     id="metadata7">
    <rdf:RDF>
      <cc:Work
         rdf:about="">
        <dc:format>image/svg+xml</dc:format>
        <dc:type
           rdf:resource="http://purl.org/dc/dcmitype/StillImage" />
      </cc:Work>
    </rdf:RDF>
  </metadata>
  <g
     inkscape:label="Layer 1"
     inkscape:groupmode="layer"
     id="layer1"
     transform="translate(-145.87591,-126.04165)">
    <g
       id="g3083"
       transform="matrix(0.92482216,0,0,0.92482216,27.502801,19.547781)">
      <path
         id="path2170"
         d="m 411.6875,156.3125 0,20 0,20 -3.75,-0.0312 c -1.98614,-0.009 -3.12523,-0.24986 -4.1875,-1.125 l -1.15625,0 c 0.0335,0.10048 0.0937,0.20271 0.0937,0.28125 0,0.49441 -28.37959,0.875 -65,0.875 l -65,0 0,13 0,13 40.5,0 40.5,0 0,5 0,5 -10.5,0 -10.5,0 0,-2.8125 c 0,-4.01438 -1.71009,-5.1875 -7.5,-5.1875 -5.79,0 -7.49999,1.17312 -7.5,5.1875 0,2.77949 -0.0477,2.8125 -6.5,2.8125 l -6.5,0 0,12.5 0,12.5 5.96875,0 5.96875,0 0.3125,-12.25 c 0.0937,-3.64904 0.18129,-5.587 0.25,-5.71875 0.0957,0.3904 0.18928,4.52702 0.28125,12.71875 0.11652,10.36693 -0.13023,18.8682 -0.5625,19.21875 l 0,1.4375 c 0.58166,1.17756 0.78126,5.1416 0.78125,13.9375 l 0,14.375 -0.3125,0.0312 0,1.03125 0.3125,-0.0312 0,12.96875 0,13 -0.3125,0.0312 0,1 0.3125,-0.0312 0,21.9375 c 0,15.72931 0.3271,22.29586 1.1875,23.15625 1.557,1.55702 11.06789,1.55703 12.625,0 0.8628,-0.86281 1.18751,-7.59281 1.1875,-23.90625 l 0,-22.6875 0.125,-0.0312 0,-1 -0.125,0.0312 0,-13.0625 0,-13.0625 0.3125,-0.0625 0,-1 -0.3125,0.0625 0,-13.9375 0,-13.96875 0.34375,0 0,-1.03125 -0.34375,0 0.21875,-18.84375 c 0.0949,-8.2658 0.15589,-12.3143 0.25,-12.59375 0.0732,-0.21735 0.1738,1.84757 0.28125,6.03125 l 0.3125,12.25 15.375,0 15.375,0 0.34375,5.625 c 0.10884,1.7884 0.0629,3.35103 -0.0937,4.4375 l 0,2.34375 c 0.19637,-0.009 0.40288,-0.0287 0.59375,-0.0312 1.41745,-0.0187 2.58831,0.21162 2.84375,0.625 0.3407,0.5512 3.48859,1.00001 7,1 7.6962,0 9.50001,1.74547 9.5,9.21875 l 0,4.78125 -17.9375,0 -17.96875,0 -0.28125,5.71875 -0.28125,5.1875 0.21875,0 0,2.09375 c 0.1959,0.23663 0.25,0.59871 0.25,1.125 0,0.38587 -0.0878,0.73181 -0.25,1.03125 l 0,0.375 -0.28125,0 c -0.26271,0.28246 -0.59731,0.46875 -0.96875,0.46875 -1.2458,0 -1.49999,1.92133 -1.5,11.40625 l 0,11.4375 -0.46875,0.0937 0,1.46875 c 0.4408,0.45333 0.46876,1.59109 0.46875,4 l 0,4.59375 -6,0 -6,0 0,21 0,21 -8.5,0 -8.5,0 0,-21 0,-21 -18.9375,0 c -11.914,0 -19.19344,0.38351 -19.59375,1.03125 -0.3501,0.56638 0.74489,2.60351 2.4375,4.53125 1.22087,1.39049 2.09179,2.788 2.625,4.15625 -0.364,-1.80761 -0.99215,-3.81691 -1.96875,-6.03125 -0.10317,-0.0908 -0.20862,-0.17388 -0.3125,-0.25 -0.19245,-0.141 -0.19644,-0.26418 0.0312,-0.375 -0.01,-0.0217 -0.0212,-0.0408 -0.0312,-0.0625 l 0.25,0 c 1.35199,-0.42672 6.4131,-0.625 16.25,-0.625 l 17.90625,0 0,0.71875 0.96875,0 0,39.25 17.5625,0 0,-39.1875 1.3125,0 0,-0.65625 23.25,-0.0625 c 12.7875,-0.0304 23.25001,0.19868 23.25,0.5 0,0.0604 -0.54937,0.67336 -1.375,1.5625 l 0.0312,2.0625 c 0.81441,-0.70816 1.34375,-1.1703 1.34375,-1.0625 0,0.1109 -0.53598,0.77058 -1.34375,1.6875 l 0,2.3125 c 0.80009,-0.69151 1.34375,-1.11023 1.34375,-1 0,0.11524 -0.52888,0.75938 -1.34375,1.6875 l 0.0312,2.28125 c 0.79302,-0.68134 1.3125,-1.08223 1.3125,-0.96875 0,0.11945 -0.49831,0.75611 -1.3125,1.6875 l 0,2.25 c 0.80198,-0.6857 1.3125,-1.05584 1.3125,-0.9375 0,0.12512 -0.48691,0.73941 -1.3125,1.6875 l 0.0312,2.21875 c 0.80094,-0.68032 1.28125,-1.02919 1.28125,-0.90625 0,0.12901 -0.47375,0.7226 -1.28125,1.65625 l 0,2.21875 c 0.7946,-0.66953 1.28125,-1.00268 1.28125,-0.875 0,0.1356 -0.46816,0.74219 -1.28125,1.6875 l 0.0312,2.15625 c 0.7998,-0.66873 1.25,-0.97787 1.25,-0.84375 0,0.13928 -0.47276,0.74644 -1.25,1.65625 l 0,2.15625 c 0.77682,-0.64127 1.25,-0.95136 1.25,-0.8125 0,0.14448 -0.46973,0.77004 -1.21875,1.65625 l 0,2.125 c 0.74777,-0.60749 1.21875,-0.92511 1.21875,-0.78125 0,0.15161 -0.49048,0.78452 -1.21875,1.65625 l 0,2.125 c 0.73122,-0.58402 1.21875,-0.93252 1.21875,-0.78125 0,0.1591 -0.491,0.80973 -1.1875,1.65625 l 0,2.0625 c 0.69221,-0.5428 1.1875,-0.87638 1.1875,-0.71875 0,0.1706 -0.50894,0.81784 -1.1875,1.65625 l 0.0312,2.0625 c 1.22325,-0.87576 1.26199,-0.53138 0,1.0625 l 0,1.875 c 1.25505,-0.86745 1.32575,-0.50072 0,1.1875 l 0.0312,1.71875 c 1.26057,-0.82745 1.32506,-0.34563 0,1.375 l 0,1.5 c 0.36005,-0.22828 0.66881,-0.38522 0.84375,-0.40625 0.47584,-0.0572 0.21567,0.65479 -0.84375,2.03125 l 0.0312,1.09375 c 0.93892,-0.69591 0.94963,-0.3738 0.84375,1.03125 -0.0299,0.39639 -0.15906,0.71875 -0.84375,0.96875 l 0,0.1875 -0.6875,0 c -1.00645,0.21314 -2.66256,0.35793 -5.5,0.46875 l 0.5,-0.46875 -0.0937,0 -0.4375,0.46875 c -0.8284,0.0322 -2.02526,0.0371 -3.0625,0.0625 -0.9538,0.0233 -1.91296,0.0442 -3.0625,0.0625 -0.94379,0.015 -1.9755,0.0505 -3.0625,0.0625 -0.89051,0.01 -2.00718,-0.008 -3,0 -0.82156,0.007 -2.11284,-0.006 -3,0 -0.88715,0.006 -2.04233,-0.005 -3,0 -0.87996,0.005 -2.07212,-0.005 -3,0 -0.89646,0.005 -2.05953,-0.005 -3,0 -6.58348,0.0356 -14.11288,0.0926 -24.6875,0.0937 -30.6913,0.003 -55.88744,-8.1e-4 -55.96875,-0.0312 -0.0812,-0.0304 -0.22411,-6.42589 -0.3125,-14.1875 l -0.15625,-14.09375 1.46875,0.0625 c 4.55227,-0.21575 11.98013,-2.64152 12.96875,-10.3125 -0.51118,1.71309 -1.60946,3.35226 -3.34375,4.875 -2.9386,2.58013 -4.3723,3.09374 -8.5,3.09375 l -4.96875,0 0,31.5 0,31.5 29.125,0 29.15625,0 -0.0312,0.28125 1,0 0.0312,-0.28125 24.84375,0 24.875,0 0,-15.5 0,-15.5 9.25,0 9.25,0 0,0.4375 3.75,0 20.75,-0.46875 23.5,-0.53125 -23.15625,-0.21875 -23.1875,-0.21875 -0.0312,-0.375 -1.625,0 0,0.375 -5.75,0 -5.75,0 0,-26 0,-26 5.90625,0 5.90625,0 0,0.5625 1.375,0 0.0312,-0.5625 20.1875,0 20.1875,0 0.0625,0.15625 2.65625,0 c 0.81563,-0.0957 1.95001,-0.15625 3.1875,-0.15625 1.2375,0 2.37187,0.0612 3.1875,0.15625 l 2.59375,0 0.0625,-0.15625 13.21875,0 c 6.38667,0 9.70512,0.0648 11.5625,0.375 l 4.78125,0 c 1.7624,-0.27144 5.13403,-0.37501 11,-0.375 l 13.09375,0 0,26 0,26 -4.875,0 0,0.21875 -14.8125,0 0,-0.15625 -16.6875,0.1875 -23.125,0.28125 23.15625,0.25 23.15625,0.21875 0.0625,0.4375 1,0 -0.0625,-0.4375 9.59375,0 9.59375,0 0,15.5 0,15.5 54,0 54,0 0,-31.5 0,-31.5 -5.09375,0 c -4.4667,0 -5.52228,-0.42848 -8.5,-3.40625 -2.10576,-2.10573 -3.25076,-4.30855 -3.4375,-6.53125 0.12662,9.31022 9.01949,11.90092 13.75,11.90625 l 0,0.28125 0.90625,-0.0937 -0.0625,14.15625 -0.0625,14.1875 -55.3125,0.0625 c -11.97989,0.0122 -22.54037,-0.0372 -31.65625,-0.0937 -14.03227,-0.087 -23.84209,-0.2207 -23.9375,-0.40625 -0.0197,-0.0383 -0.0453,-0.25422 -0.0625,-0.625 l -0.53125,0 0.28125,-49.5625 0.21875,0 0,-0.375 23.0625,-0.0625 23.09375,-0.0625 0,0.375 0.0625,0 0,33.03125 c 0.0948,3.24612 0.22129,5.43963 0.375,6.15625 l 0.90625,0 0,-20.9375 0,-21 -6,0 -6,0 0,-16.5 c 0,-14 -0.22732,-16.50001 -1.5,-16.5 -1.2084,0 -1.50002,-1.55557 -1.5,-8 l 0,-8 -18,0 -18,0 0,-4.78125 c 0,-7.44038 1.8056,-9.21874 9.375,-9.21875 5.3939,0 6.60418,-0.34894 8.625,-2.5 0.84384,-0.89824 1.41697,-1.47495 2.5625,-1.84375 l 0,-1.65625 -0.5625,0 0,-4 0,-4 15.46875,0 15.46875,0 0.3125,-12.25 c 0.12989,-5.05981 0.21666,-7.85691 0.28125,-8.125 0.083,-0.34469 0.13519,3.49529 0.25,12.125 l 0.21875,16.25 -0.40625,0 0,1 0.40625,0 0,53.3125 c 0,40.12222 0.28423,53.5967 1.1875,54.5 1.557,1.55702 11.06789,1.55703 12.625,0 0.9024,-0.90245 1.18748,-14.04444 1.1875,-53 0,-29.71646 0.011,-42.34068 0.40625,-47.75 l 0,-5.46875 -0.40625,-0.0937 0.21875,-17.5 c 0.186,-15.05943 0.26062,-15.78612 0.53125,-5.25 l 0.3125,12.25 5.96875,0 5.96875,0 0,-12.5 0,-12.5 -3.9375,0 c -1.57151,0 -3.07373,-0.23334 -3.90625,-0.5625 l -3.4375,0 c -0.95837,0.89782 -1.71876,0.84061 -1.71875,-0.5 0,-0.33448 0.16793,-0.5109 0.40625,-0.5625 l 0,-2.125 c -0.0792,-0.14972 -0.12973,-0.27768 -0.21875,-0.4375 -1.6823,-3.02051 -2.31795,-3.34753 -7.09375,-3.625 -6.0928,-0.354 -8.09377,0.87174 -8.09375,4.9375 l 0,2.875 -8,0 -8,0 0,-5 0,-5 19.65625,0 c 11.32603,0 16.09166,0.0388 17.78125,0.4375 l 4.375,0 0,0.21875 c 3.125,-0.38775 9.60925,-0.65625 17.125,-0.65625 l 17.0625,0 0,-6.5 c 0,-2.99217 0.0289,-4.59575 0.3125,-5.46875 l 0,-3.6875 c -0.18725,-0.35586 -0.31251,-0.75343 -0.3125,-1.15625 0,-0.74223 0.051,-1.10186 0.28125,-1.09375 0.008,2.7e-4 0.0233,-0.001 0.0312,0 l 0,-4.8125 c -0.21015,-0.30897 -0.31251,-0.73609 -0.3125,-1.28125 0,-1.94444 -0.66672,-2 -24,-2 -8.96291,0 -14.84555,0.0523 -18.5625,-0.21875 l -6.625,0 -0.0312,0.21875 -44.90625,0 -44.875,0 0,-14.34375 0,-14.34375 0.6875,-0.21875 0,-1.1875 c -0.39755,-0.46826 -0.68749,-2.5 -0.6875,-4.90625 l 0,-5 -30.5,0 -30.5,0 z m 115.53125,231.46875 1.0625,-1.03125 -0.0625,0 -1,1.03125 z m -165.03125,0.0312 0.6875,-0.65625 -0.0625,0 -0.625,0.65625 z m 3,0 0.6875,-0.65625 -0.0625,0 -0.625,0.65625 z m 3.0625,-0.0625 0.625,-0.59375 -0.0625,0 -0.5625,0.59375 z m 3.0625,-0.0625 0.5625,-0.53125 -0.0625,0 -0.5,0.53125 z m 41.375,-230.375 29.5,0 29.5,0 0,4.90625 c 0,2.22349 -0.0288,3.46343 -0.5,4.40625 l 0,1.875 0.5,-0.25 0,14.03125 0,14.03125 -29.5,0 -29.5,0 0,-19.5 0,-19.5 z M 325.28125,197.25 c 4.25139,0 8.44435,0.43154 8.5,1.3125 0.0632,1 0.15901,1 0.5625,0 0.6551,-1.62338 3.33499,-1.62338 3.4375,0 0.0632,1 0.15901,1 0.5625,0 0.389,-0.96389 7.92914,-1.25 32.90625,-1.25 l 32.375,0 0.21875,0.40625 1,0 -0.21875,-0.40625 70.4375,0 c 55.4182,0 70.57192,0.2666 70.96875,1.25 0.4035,1 0.49942,1 0.5625,0 0.1025,-1.62338 2.78237,-1.62338 3.4375,0 0.4035,1 0.49942,1 0.5625,0 0.0531,-0.84121 1.93267,-1.25 5.6875,-1.25 l 5.5625,0 -0.0625,0.28125 2.03125,0 c 0.41661,-0.20136 0.90185,-0.28125 1.5,-0.28125 1.3108,0 2.42537,0.5625 2.46875,1.25 0.0632,1 0.15901,1 0.5625,0 0.6551,-1.62338 3.33502,-1.62338 3.4375,0 0.0632,1 0.15901,1 0.5625,0 0.3786,-0.93817 5.23983,-1.25 19.4375,-1.25 l 18.90625,0 0,12 0,12 -15.5,0 c -4.6808,0 -8.74552,-0.0744 -11.59375,-0.1875 l -8.875,0 0,-0.125 c -1.57983,0.22919 -3.34784,0.3125 -5.71875,0.3125 -2.96273,0 -4.91233,-0.008 -6.1875,-0.4375 l -8.25,0 0,-0.0625 -70.875,0.25 -75.5,0.25 0,-0.1875 -1.5625,0 -0.0312,0.1875 -66.4375,0 -66.46875,0 0,-12 0,-12 19,0 c 14.4912,0 19.03354,0.29663 19.09375,1.25 0.0632,1 0.15901,1 0.5625,0 0.6551,-1.62338 3.33499,-1.62338 3.4375,0 0.0632,1 0.15901,1 0.5625,0 0.3555,-0.88096 4.68611,-1.3125 8.9375,-1.3125 z m -13.21875,3.25 c -0.20461,0.0753 -0.31381,0.61563 -0.28125,1.40625 0.048,1.16495 0.27456,1.39148 0.59375,0.59375 0.2888,-0.72187 0.23853,-1.57396 -0.0937,-1.90625 -0.0831,-0.0831 -0.15055,-0.11886 -0.21875,-0.0937 z m 4,0 c -0.20461,0.0753 -0.31381,0.61563 -0.28125,1.40625 0.048,1.16495 0.27456,1.39148 0.59375,0.59375 0.2888,-0.72187 0.23853,-1.57396 -0.0937,-1.90625 -0.0831,-0.0831 -0.15055,-0.11886 -0.21875,-0.0937 z m 230,0 c -0.20462,0.0753 -0.31378,0.61563 -0.28125,1.40625 0.048,1.16495 0.27452,1.39148 0.59375,0.59375 0.2888,-0.72187 0.23857,-1.57396 -0.0937,-1.90625 -0.0831,-0.0831 -0.15054,-0.11886 -0.21875,-0.0937 z m 4,0 c -0.20462,0.0753 -0.31378,0.61563 -0.28125,1.40625 0.048,1.16495 0.27452,1.39148 0.59375,0.59375 0.2888,-0.72187 0.23857,-1.57396 -0.0937,-1.90625 -0.0831,-0.0831 -0.15054,-0.11886 -0.21875,-0.0937 z m -216,3 c -0.20461,0.0753 -0.31381,0.61563 -0.28125,1.40625 0.048,1.16495 0.27456,1.39148 0.59375,0.59375 0.2888,-0.72187 0.23853,-1.57396 -0.0937,-1.90625 -0.0831,-0.0831 -0.15055,-0.11886 -0.21875,-0.0937 z m 234,0 c -0.20462,0.0753 -0.31378,0.61563 -0.28125,1.40625 0.048,1.16495 0.27452,1.39148 0.59375,0.59375 0.2888,-0.72187 0.23857,-1.57396 -0.0937,-1.90625 -0.0831,-0.0831 -0.15054,-0.11886 -0.21875,-0.0937 z m -230,3 c -0.20461,0.0753 -0.31381,0.61563 -0.28125,1.40625 0.048,1.16495 0.27456,1.39148 0.59375,0.59375 0.2888,-0.72187 0.23853,-1.57396 -0.0937,-1.90625 -0.0831,-0.0831 -0.15055,-0.11886 -0.21875,-0.0937 z m 234,0 c -0.20462,0.0753 -0.31378,0.61563 -0.28125,1.40625 0.048,1.16495 0.27452,1.39148 0.59375,0.59375 0.2888,-0.72187 0.23857,-1.57396 -0.0937,-1.90625 -0.0831,-0.0831 -0.15054,-0.11886 -0.21875,-0.0937 z m -260,1 c -0.20461,0.0753 -0.31381,0.61563 -0.28125,1.40625 0.048,1.16495 0.27456,1.39148 0.59375,0.59375 0.2888,-0.72187 0.23853,-1.57396 -0.0937,-1.90625 -0.0831,-0.0831 -0.15055,-0.11886 -0.21875,-0.0937 z m 4,0 c -0.20461,0.0753 -0.31381,0.61563 -0.28125,1.40625 0.048,1.16495 0.27456,1.39148 0.59375,0.59375 0.2888,-0.72187 0.23853,-1.57396 -0.0937,-1.90625 -0.0831,-0.0831 -0.15055,-0.11886 -0.21875,-0.0937 z m 230,0 c -0.20462,0.0753 -0.31378,0.61563 -0.28125,1.40625 0.048,1.16495 0.27452,1.39148 0.59375,0.59375 0.2888,-0.72187 0.23857,-1.57396 -0.0937,-1.90625 -0.0831,-0.0831 -0.15054,-0.11886 -0.21875,-0.0937 z m 4,0 c -0.20462,0.0753 -0.31378,0.61563 -0.28125,1.40625 0.048,1.16495 0.27452,1.39148 0.59375,0.59375 0.2888,-0.72187 0.23857,-1.57396 -0.0937,-1.90625 -0.0831,-0.0831 -0.15054,-0.11886 -0.21875,-0.0937 z m -216,3 c -0.20461,0.0753 -0.31381,0.61563 -0.28125,1.40625 0.048,1.16495 0.27456,1.39148 0.59375,0.59375 0.2888,-0.72187 0.23853,-1.57396 -0.0937,-1.90625 -0.0831,-0.0831 -0.15055,-0.11886 -0.21875,-0.0937 z m 4,0 c -0.20461,0.0753 -0.31381,0.61563 -0.28125,1.40625 0.048,1.16495 0.27456,1.39148 0.59375,0.59375 0.2888,-0.72187 0.23853,-1.57396 -0.0937,-1.90625 -0.0831,-0.0831 -0.15055,-0.11886 -0.21875,-0.0937 z m 230,0 c -0.20462,0.0753 -0.31378,0.61563 -0.28125,1.40625 0.048,1.16495 0.27452,1.39148 0.59375,0.59375 0.2888,-0.72187 0.23857,-1.57396 -0.0937,-1.90625 -0.0831,-0.0831 -0.15054,-0.11886 -0.21875,-0.0937 z m 4,0 c -0.20462,0.0753 -0.31378,0.61563 -0.28125,1.40625 0.048,1.16495 0.27452,1.39148 0.59375,0.59375 0.2888,-0.72187 0.23857,-1.57396 -0.0937,-1.90625 -0.0831,-0.0831 -0.15054,-0.11886 -0.21875,-0.0937 z m -260,7 c -0.20461,0.0753 -0.31381,0.61563 -0.28125,1.40625 0.048,1.16495 0.27456,1.39148 0.59375,0.59375 0.2888,-0.72187 0.23853,-1.57396 -0.0937,-1.90625 -0.0831,-0.0831 -0.15055,-0.11886 -0.21875,-0.0937 z m 4,0 c -0.20461,0.0753 -0.31381,0.61563 -0.28125,1.40625 0.048,1.16495 0.27456,1.39148 0.59375,0.59375 0.2888,-0.72187 0.23853,-1.57396 -0.0937,-1.90625 -0.0831,-0.0831 -0.15055,-0.11886 -0.21875,-0.0937 z m 18,0 c -0.20461,0.0753 -0.31381,0.61563 -0.28125,1.40625 0.048,1.16495 0.27456,1.39148 0.59375,0.59375 0.2888,-0.72187 0.23853,-1.57396 -0.0937,-1.90625 -0.0831,-0.0831 -0.15055,-0.11886 -0.21875,-0.0937 z m 4,0 c -0.20461,0.0753 -0.31381,0.61563 -0.28125,1.40625 0.048,1.16495 0.27456,1.39148 0.59375,0.59375 0.2888,-0.72187 0.23853,-1.57396 -0.0937,-1.90625 -0.0831,-0.0831 -0.15055,-0.11886 -0.21875,-0.0937 z m 208,0 c -0.20462,0.0753 -0.31378,0.61563 -0.28125,1.40625 0.048,1.16495 0.27452,1.39148 0.59375,0.59375 0.2888,-0.72187 0.23857,-1.57396 -0.0937,-1.90625 -0.0831,-0.0831 -0.15054,-0.11886 -0.21875,-0.0937 z m 4,0 c -0.20462,0.0753 -0.31378,0.61563 -0.28125,1.40625 0.048,1.16495 0.27452,1.39148 0.59375,0.59375 0.2888,-0.72187 0.23857,-1.57396 -0.0937,-1.90625 -0.0831,-0.0831 -0.15054,-0.11886 -0.21875,-0.0937 z m 18,0 c -0.20462,0.0753 -0.31378,0.61563 -0.28125,1.40625 0.048,1.16495 0.27452,1.39148 0.59375,0.59375 0.2888,-0.72187 0.23857,-1.57396 -0.0937,-1.90625 -0.0831,-0.0831 -0.15054,-0.11886 -0.21875,-0.0937 z m 4,0 c -0.20462,0.0753 -0.31378,0.61563 -0.28125,1.40625 0.048,1.16495 0.27452,1.39148 0.59375,0.59375 0.2888,-0.72187 0.23857,-1.57396 -0.0937,-1.90625 -0.0831,-0.0831 -0.15054,-0.11886 -0.21875,-0.0937 z m -127.375,5.8125 89,0 0,3.5 0,3.5 -89,0 -89,0 0,-3.5 0,-3.46875 89,-0.0312 z m -119.125,2.09375 c 1.0875,0.002 2.1549,0.0734 2.90625,0.1875 1.5026,0.22818 0.0188,0.41186 -3.28125,0.40625 -3.3,-0.006 -4.51615,-0.18369 -2.71875,-0.40625 0.89865,-0.11128 2.00625,-0.18935 3.09375,-0.1875 z m 234,0 c 1.0875,0.002 2.1549,0.0734 2.90625,0.1875 1.5026,0.22818 0.0187,0.41186 -3.28125,0.40625 -3.3,-0.006 -4.51615,-0.18369 -2.71875,-0.40625 0.89865,-0.11128 2.00625,-0.18935 3.09375,-0.1875 z m -240.875,1.90625 6.5,0 6.5,0 0,21.375 0,21.375 -0.34375,0.0625 0,1 0.34375,-0.0625 0,14.0625 0,14.09375 -0.28125,0.0312 0,1.0625 0.28125,-0.0312 0,13 c 0,6.05677 -0.0284,9.2556 -0.28125,11.03125 l 0,3.09375 0.3125,-0.0625 -0.25,23.25 -0.28125,23.21875 -5.53125,0.28125 c -3.0469,0.1615 -5.85939,-0.0156 -6.25,-0.40625 -0.3907,-0.39066 -0.71874,-10.51658 -0.71875,-22.5 l 0,-21.78125 0.3125,-0.0625 0,-1.03125 -0.3125,0.0312 0,-13 c 0,-5.87628 -0.14283,-9.1256 0.3125,-11.03125 l 0,-3.125 -0.3125,0.0625 0,-14.46875 0,-14.46875 0.1875,0 0,-1 -0.1875,0 0,-22 0,-22 z m 234,0 6.5,0 6.5,0 0,20 c 0,5.29612 0.0157,9.1677 -0.0312,12.0625 l 0.0312,0 0,9.0625 0.0312,0 -0.0312,5.84375 0,1.53125 -0.25,45.3125 -0.25,52.6875 -5.53125,0.28125 c -3.0469,0.1615 -5.85939,-0.0156 -6.25,-0.40625 -0.3907,-0.39066 -0.71877,-24.7546 -0.71875,-54.125 0,-23.28095 0.0304,-36.37493 0.21875,-43.75 l -0.0312,0 0,-14.09375 c -0.28277,-2.81175 -0.18751,-7.49482 -0.1875,-15.4375 l 0,-18.96875 z m -12.5,6 c 0.047,0 0.0295,0.0487 0,0.125 l 2.75,0 c 0.0885,-0.0502 0.21199,-0.125 0.25,-0.125 0.047,0 0.0295,0.0487 0,0.125 l 2.65625,0 0,22.5 -206.84375,0 0,-22.5 200.9375,0 c 0.0885,-0.0502 0.21199,-0.125 0.25,-0.125 z m -226,0.34375 c 0.7706,0 1.1039,3.47449 1.0625,11 -0.0377,6.84494 -0.46179,11.12272 -1.125,11.34375 -0.7127,0.23751 -1.0625,-3.40702 -1.0625,-11 0,-7.753 0.3559,-11.34375 1.125,-11.34375 z m 22,0 c 0.7706,0 1.1039,3.47449 1.0625,11 -0.0377,6.84494 -0.46179,11.12272 -1.125,11.34375 -0.7127,0.23751 -1.0625,-3.40702 -1.0625,-11 0,-7.753 0.3559,-11.34375 1.125,-11.34375 z m 212,0 c 0.7706,0 1.10387,3.47449 1.0625,11 -0.0377,6.84494 -0.46182,11.12272 -1.125,11.34375 -0.7127,0.23751 -1.06253,-3.40702 -1.0625,-11 0,-7.753 0.35593,-11.34375 1.125,-11.34375 z m 22,0 c 0.7706,0 1.10387,3.47449 1.0625,11 -0.0377,6.84494 -0.46182,11.12272 -1.125,11.34375 -0.7127,0.23751 -1.06253,-3.40702 -1.0625,-11 0,-7.753 0.35593,-11.34375 1.125,-11.34375 z m -264.125,0.0312 2.8125,0 c 3.4767,0 3.48291,0.26763 0.0625,4.0625 l -2.75,3.0625 2.75,-2.4375 c 3.5547,-3.12906 3.55471,-1.56895 0,2.375 l -2.71875,3.03125 2.71875,-2.40625 c 3.5547,-3.12906 3.55471,-1.56895 0,2.375 l -2.6875,2.96875 c -0.0126,-0.72308 -0.02,-1.20484 -0.0312,-1.96875 l 0,-0.96875 -0.0312,-2.96875 -0.125,-7.125 z m 267,0 2.625,0 2.625,0 0,11.1875 c 0,11.03529 -0.0294,11.18751 -2.3125,11.1875 -1.2737,0 -2.38787,-0.0562 -2.46875,-0.125 -0.0809,-0.0687 -0.22262,-5.10001 -0.3125,-11.1875 l -0.15625,-11.0625 z m -263.375,0.625 c -0.0516,-0.0516 -0.45699,0.25307 -1.25,0.875 -0.9625,0.75485 -1.74999,1.54235 -1.75,1.75 0,0.82304 0.81871,0.29075 2.125,-1.375 0.62195,-0.79303 0.92661,-1.19838 0.875,-1.25 z m 267,0 c -0.0516,-0.0516 -0.45701,0.25307 -1.25,0.875 -0.9625,0.75485 -1.75002,1.54235 -1.75,1.75 0,0.82304 0.81868,0.29075 2.125,-1.375 0.62195,-0.79303 0.92661,-1.19838 0.875,-1.25 z m 0.8125,2 c -0.275,0 -1.31702,0.9 -2.3125,2 -0.9955,1.1 -1.58752,2 -1.3125,2 0.275,0 1.31698,-0.9 2.3125,-2 0.9955,-1.1 1.5875,-2 1.3125,-2 z m 0,3 c -0.275,0 -1.31702,0.9 -2.3125,2 -0.9955,1.1 -1.58752,2 -1.3125,2 0.275,0 1.31698,-0.9 2.3125,-2 0.9955,-1.1 1.5875,-2 1.3125,-2 z m 0,3 c -0.275,0 -1.31702,0.9 -2.3125,2 -0.9955,1.1 -1.58752,2 -1.3125,2 0.275,0 1.31698,-0.9 2.3125,-2 0.9955,-1.1 1.5875,-2 1.3125,-2 z m -266.0625,0.40625 c 0.55542,0.0382 -0.27831,1.56628 -2.5,4.03125 l -2.625,2.90625 c -0.0205,-0.93507 -0.0438,-1.83987 -0.0625,-2.90625 l 2.6875,-2.375 c 1.33301,-1.1734 2.16675,-1.67916 2.5,-1.65625 z M 577.5,245.3125 c -0.275,0 -1.31702,0.9 -2.3125,2 -0.9955,1.1 -1.58752,2 -1.3125,2 0.275,0 1.31698,-0.9 2.3125,-2 0.9955,-1.1 1.5875,-2 1.3125,-2 z m -266.0625,0.40625 c 0.55542,0.0382 -0.27831,1.56628 -2.5,4.03125 l -2.5625,2.84375 c -0.0209,-0.75172 -0.042,-1.97286 -0.0625,-2.90625 l 2.625,-2.3125 c 1.33301,-1.1734 2.16675,-1.67916 2.5,-1.65625 z M 577.5,248.3125 c -0.275,0 -1.31702,0.9 -2.3125,2 -0.9955,1.1 -1.58752,2 -1.3125,2 0.275,0 1.31698,-0.9 2.3125,-2 0.9955,-1.1 1.5875,-2 1.3125,-2 z m -266.0625,0.40625 c 0.55542,0.0382 -0.27831,1.56628 -2.5,4.03125 -2.7115,3.00828 -2.71319,3.02093 -0.125,0.75 l 2.625,-2.3125 0,2.4375 c 0,1.89321 -0.52609,2.43751 -2.375,2.4375 -1.3063,0 -2.45034,-0.0562 -2.53125,-0.125 -0.0399,-0.0339 -0.10071,-1.29813 -0.15625,-3.28125 l 2.5625,-2.28125 c 1.33301,-1.1734 2.16675,-1.67916 2.5,-1.65625 z M 577.5,251.3125 c -0.275,0 -1.31702,0.9 -2.3125,2 -0.9955,1.1 -1.58752,2 -1.3125,2 0.275,0 1.31698,-0.9 2.3125,-2 0.9955,-1.1 1.5875,-2 1.3125,-2 z m -211.8125,5.96875 35.75,0.25 c 11.4485,0.0841 18.96784,0.13519 24.25,0.25 l 13.28125,0 c 0.005,-0.0775 0.0321,-0.12583 0.0625,-0.15625 0.1217,-0.1217 0.64294,-0.19588 1.375,-0.21875 0.73206,-0.0229 1.69845,0.007 2.6875,0.0937 l 3.21875,0.28125 4.84375,0 1.96875,0 29.8125,-0.25 35.75,-0.25 0,3.90625 0,3.875 -0.84375,0.0312 0,1.5625 c 0.37699,0.17787 0.31092,0.45641 0,0.875 l 0,0.28125 -0.21875,0 c -0.13267,0.15612 -0.26486,0.30923 -0.4375,0.5 -1.4435,1.59506 -3.09134,2.00001 -8.09375,2 -5.5852,0 -6.49825,0.27884 -8.34375,2.625 -1.9106,2.42905 -2.06249,3.95219 -2.0625,19.5 l 0,16.875 -9.5,0 -9.5,0 0,-16 0,-16 -4.5,0 -4.5,0 0,16 0,16 -4.4375,0 -4.46875,0 -0.25,-0.46875 -1,0 0.25,0.46875 -6.53125,0 -6.5625,0 0,-18.6875 c 0,-9.05627 -0.10656,-13.98548 -0.40625,-16.1875 l -10.1875,0 c -0.2516,3.0826 -0.40624,9.23913 -0.40625,16.375 l 0,18.5 -11.5,0 -11.5,0 0,-16 0,-16 -4.5,0 -4.5,0 0,16 0,16 -9.5,0 -9.5,0 0,-16.875 c 0,-15.54781 -0.15179,-17.07095 -2.0625,-19.5 -1.8439,-2.34415 -2.80929,-2.62885 -8.75,-2.75 -8.3235,-0.16975 -5.80663,-0.53906 11.53125,-1.53125 L 367.875,268.5 l 0.5625,-0.4375 c -0.57628,-0.02 -1.03258,-0.0463 -1.15625,-0.0937 -1.1548,-0.44314 -1.59374,-1.97726 -1.59375,-5.65625 l 0,-5.03125 z m 136.53125,8.59375 c -0.39028,0.0248 -0.80408,0.0374 -1.1875,0.0625 l 0,0.78125 c 0.3758,-0.0327 0.80115,-0.033 1.1875,-0.0625 l 0,-0.78125 z m -63.53125,9.4375 3.5,0 3.5,0 0,16.5 0,16.5 -3.5,0 -3.5,0 0,-16.5 0,-16.5 z m -32,4 2.5,0 2.5,0 0,15 0,15 -2.5,0 -2.5,0 0,-15 0,-15 z m 66,0 2.5,0 2.5,0 0,15 0,15 -2.5,0 -2.5,0 0,-15 0,-15 z m -123,7 17.5,0 17.5,0 0,5 0,5 -10,0 c -10,0 -9.99999,-10e-6 -10,2.5 0,2.44444 -0.16669,2.49999 -7.5,2.5 -4.56964,0 -6.39491,-0.0883 -7.09375,-0.6875 l -0.0625,0 0,-0.0625 c -0.27999,-0.28094 -0.34375,-0.66385 -0.34375,-1.1875 0,-0.40671 0.13525,-0.80196 0.34375,-1.15625 l 0,-2.59375 c -0.2972,-0.58813 -0.34375,-1.85999 -0.34375,-4.25 l 0,-5.0625 z m 150,0 17.5,0 17.5,0 0,5 0,5 -17.5,0 -17.5,0 0,-5 0,-5 z m -133.875,10.84375 18.8125,0 0,3.9375 -18.8125,0 0,-3.9375 z m 133.875,0.0625 18.8125,0 0,3.9375 -18.8125,0 0,-3.9375 z m 27.5,0.0937 c 6.8333,0 7.49998,0.17777 7.5,2 0,1.82222 -0.66672,1.99999 -7.5,2 -6.8334,0 -7.50002,-0.17779 -7.5,-2 0,-1.82222 0.66658,-2.00001 7.5,-2 z m -180.5,5 19,0 c 14.5272,0 18.9913,0.29425 19,1.25 0.006,0.6875 -0.76816,7.88749 -1.71875,16 l -1.71875,14.75 -17.28125,0 -17.28125,0 0,-4.46875 c 0,-2.63572 0.0269,-3.72837 0.9375,-4.40625 l 0,-1.46875 c -0.83066,-0.38502 -0.93749,-2.63399 -0.9375,-10.59375 l 0,-11.0625 z m 172,0 19,0 0,16 0,16 -17.28125,0 -17.28125,0 -1.71875,-14.75 c -0.9507,-8.1125 -1.72506,-15.31251 -1.71875,-16 0.009,-0.95574 4.47268,-1.25001 19,-1.25 z m -76.1875,7.6563 c 0.27099,-0.0516 0.47795,0.0314 0.59375,0.21875 0.3087,0.4995 -0.15899,1.50017 -1.0625,2.25 -1.2953,1.07506 -7.5105,1.38807 -29.3125,1.4375 -25.2522,0.0573 -27.63389,-0.0835 -27.75,-1.625 -0.0872,-1.15846 0.6328,-1.68751 2.3125,-1.6875 2.1057,0 2.26429,0.22675 1.1875,1.625 -0.996,1.29333 -0.82821,1.26781 0.8125,-0.125 2.6587,-2.25693 4.02904,-2.25694 2.28125,0 -1.2906,1.66667 -1.24456,1.66666 0.71875,0 2.6587,-2.25693 4.02904,-2.25694 2.28125,0 -1.2906,1.66667 -1.24456,1.66666 0.71875,0 2.6587,-2.25693 4.02904,-2.25694 2.28125,0 -1.2906,1.66667 -1.24456,1.66666 0.71875,0 2.6587,-2.25693 4.02904,-2.25694 2.28125,0 -1.2906,1.66667 -1.24456,1.66666 0.71875,0 2.6587,-2.25693 4.02904,-2.25694 2.28125,0 -1.2906,1.66667 -1.24456,1.66666 0.71875,0 2.6587,-2.25693 4.02904,-2.25694 2.28125,0 -1.2906,1.66667 -1.24456,1.66666 0.71875,0 2.6587,-2.25693 4.02904,-2.25694 2.28125,0 -1.2906,1.66667 -1.24456,1.66666 0.71875,0 2.6587,-2.25693 4.02904,-2.25694 2.28125,0 -1.2906,1.66667 -1.24456,1.66666 0.71875,0 2.6587,-2.25693 4.02904,-2.25694 2.28125,0 -1.2906,1.66667 -1.24456,1.66666 0.71875,0 2.6587,-2.25693 4.02904,-2.25694 2.28125,0 -1.2906,1.66667 -1.24456,1.66666 0.71875,0 2.6587,-2.25693 4.02904,-2.25694 2.28125,0 -1.2906,1.66667 -1.24456,1.66666 0.71875,0 2.6587,-2.25693 4.02904,-2.25694 2.28125,0 -1.2906,1.66667 -1.24456,1.66666 0.71875,0 2.6587,-2.25693 4.02904,-2.25694 2.28125,0 -1.2906,1.66667 -1.24456,1.66666 0.71875,0 2.6587,-2.25693 4.02904,-2.25694 2.28125,0 -1.2906,1.66667 -1.24456,1.66666 0.71875,0 2.6587,-2.25693 4.02904,-2.25694 2.28125,0 -1.264,1.63225 -1.19315,1.6257 0.65625,0.15625 2.4539,-1.94979 6.99774,-2.39065 5.78125,-0.5625 -0.4541,0.68238 -0.0478,0.43774 0.875,-0.5625 0.57669,-0.62515 1.17335,-1.03901 1.625,-1.125 z m 10.03125,0.34375 c 1.2133,0 1.12696,0.32563 -0.40625,1.59375 -1.7821,1.47399 -1.71125,1.474 0.78125,0 3.5155,-2.07902 4.34284,-2.02159 2.65625,0.15625 -1.2906,1.66667 -1.24456,1.66666 0.71875,0 2.6587,-2.25693 4.02904,-2.25694 2.28125,0 -1.2357,1.59579 -1.14205,1.60392 0.78125,-0.0312 1.9149,-1.62796 2.15266,-1.66273 2.71875,-0.1875 0.343,0.89372 0.62501,1.74273 0.625,1.875 0,0.13226 -3.36699,0.23765 -7.5,0.25 -7.2408,0.0216 -7.48359,-0.035 -5.875,-1.8125 0.9182,-1.01459 2.37386,-1.84376 3.21875,-1.84375 z m 11.8125,0 c 0.11571,-0.0115 0.2556,0 0.40625,0 0.5824,0 0.73184,0.56249 0.34375,1.25 -0.5646,1 -0.42115,0.99999 0.65625,0 2.0212,-1.87611 3.36439,-1.50393 1.8125,0.5 -0.53775,0.69445 -0.80959,1.07176 -0.84375,1.1875 -1.43067,-0.20035 -2.39155,-0.43614 -2.5,-0.71875 -0.65249,-1.70043 -0.68495,-2.13823 0.125,-2.21875 z m 6.75,0.0625 c 0.45956,0 0.34265,0.55903 -0.53125,1.6875 -1.2906,1.66667 -1.24456,1.66666 0.71875,0 2.6587,-2.25693 4.02904,-2.25694 2.28125,0 -1.2906,1.66667 -1.24456,1.66666 0.71875,0 2.6587,-2.25693 4.02904,-2.25694 2.28125,0 -1.2906,1.66667 -1.24456,1.66666 0.71875,0 2.6587,-2.25693 4.02904,-2.25694 2.28125,0 -1.2906,1.66667 -1.24456,1.66666 0.71875,0 2.6587,-2.25693 4.02904,-2.25694 2.28125,0 -1.2906,1.66667 -1.24456,1.66666 0.71875,0 2.6587,-2.25693 4.02904,-2.25694 2.28125,0 -1.2906,1.66667 -1.24456,1.66666 0.71875,0 2.6587,-2.25693 4.02904,-2.25694 2.28125,0 -1.2906,1.66667 -1.24456,1.66666 0.71875,0 2.6587,-2.25693 4.02904,-2.25694 2.28125,0 -1.2906,1.66667 -1.24456,1.66666 0.71875,0 2.6587,-2.25693 4.02904,-2.25694 2.28125,0 -1.1691,1.50979 -1.02816,1.50054 0.84375,-0.0937 2.1969,-1.87107 4.7088,-1.43915 4,0.6875 -0.517,1.55107 -24.67091,1.68948 -32.625,0.59375 0.14605,-0.0621 0.59794,-0.42174 1.5,-1.1875 1.32935,-1.12847 2.35294,-1.6875 2.8125,-1.6875 z m -23.90625,0.1875 c 2.4472,0 2.4923,0.0879 0.875,1.875 -2.1438,2.36895 -4.07081,2.4762 -2.25,0.125 1.0017,-1.29357 0.73079,-1.22838 -1,0.25 l -2.34375,2 9.46875,0.25 19.03125,-0.21875 0,0.90625 c 0.62151,0.55835 0.73644,1.82747 0.90625,4.71875 0.5551,9.45298 6.81251,9.19371 6.8125,-0.28125 l 0,-4.875 10.40625,0 c 1.49506,0 2.78425,-0.0319 3.90625,-0.0312 7.85403,0.005 7.27817,0.74608 8.3125,11.875 l 0.65625,7.15625 -13.875,-0.0312 -12.75,-0.0625 0.0312,0.0625 -60.25,0.40625 0,-0.40625 -0.1875,0 -19.25,0.0312 0,-0.0312 -1,0 0,0.0312 -6.15625,0 -6.125,0 0.65625,-7.15625 c 1.182,-12.71876 0.25816,-11.84376 12.21875,-11.84375 l 10.40625,0 0,4.875 c 0,9.47497 6.2574,9.73423 6.8125,0.28125 l 0.28125,-5.15625 14.0625,0 c 3.20058,0 5.56022,-0.0261 7.5,-0.0625 l 0.46875,0 c 0.0242,-5.2e-4 0.0384,5.4e-4 0.0625,0 5.90417,-0.13149 6.5556,-0.59547 7.90625,-2.3125 1.0999,-1.39828 2.89455,-2.37501 4.40625,-2.375 z m -37.9375,4.75 c 2.4501,0 2.5402,0.21908 2.25,5.25 -0.2176,3.7732 -0.75989,5.31961 -1.875,5.53125 -2.3813,0.45195 -2.93749,-0.69105 -2.9375,-5.9375 0,-4.51528 0.1782,-4.84376 2.5625,-4.84375 z m 66,0 c 2.4501,0 2.5402,0.21908 2.25,5.25 -0.2176,3.7732 -0.75989,5.31961 -1.875,5.53125 -2.3813,0.45195 -2.93749,-0.69105 -2.9375,-5.9375 0,-4.51528 0.1782,-4.84376 2.5625,-4.84375 z m 92.4375,19 0,2.6875 1.5,0 0,-0.1875 17.15625,-0.0625 17.15625,-0.0625 -2.15625,2.65625 c -0.80466,2.11067 -1.31343,4.00835 -1.53125,5.71875 0.33031,-1.54193 1.11308,-3.0628 2.375,-4.5625 5.0396,-5.98932 4.53998,-6.18751 -16,-6.1875 l -18.5,0 z m -278.15625,3 c -0.007,0 -0.0231,0.0299 -0.0312,0.0312 l 0.0625,0 c -0.009,-0.009 -0.0141,-0.0312 -0.0312,-0.0312 z m 3.0625,0 c -0.0142,0 -0.0405,0.023 -0.0625,0.0312 l 0.0625,0 c -0.006,-0.008 0.0138,-0.0312 0,-0.0312 z m 21.09375,0 c 0,-0.01 -0.10095,0.0792 -0.125,0.0937 l 0.0625,0 c 0.008,-0.013 0.0625,-0.0883 0.0625,-0.0937 z m 26.84375,0 c -0.0642,0 -0.18302,0.0761 -0.34375,0.1875 l 0.34375,0 c 0.0591,-0.12695 0.0688,-0.1875 0,-0.1875 z m 21.125,0 c -0.0311,0 -0.1718,0.076 -0.34375,0.21875 l 0.1875,0 c 0.11462,-0.14472 0.18754,-0.21875 0.15625,-0.21875 z m 3,0 c -0.0296,0 -0.17142,0.1055 -0.34375,0.25 l 0.1875,0 c 0.11948,-0.14841 0.18622,-0.25 0.15625,-0.25 z m 12.03125,0 c 0,-0.0237 -0.18226,0.14249 -0.34375,0.28125 l 0.125,0 c 0.0682,-0.0832 0.21875,-0.26595 0.21875,-0.28125 z m 3,0 c 0,-0.0237 -0.18226,0.14249 -0.34375,0.28125 l 0.125,0 c 0.0682,-0.0832 0.21875,-0.26595 0.21875,-0.28125 z m -81.03125,0.0312 c -0.004,10e-4 -0.0261,0.0294 -0.0312,0.0312 l 0.0625,0 c 0,-0.0172 -0.009,-0.0366 -0.0312,-0.0312 z m 48,0 c -0.0417,0.004 -0.12334,0.0648 -0.25,0.15625 l 0.21875,0 c 0.0231,-0.0414 0.0625,-0.10596 0.0625,-0.125 0,-0.0172 -0.0124,-0.0331 -0.0312,-0.0312 z m 6.03125,0 c 0,-0.0442 -0.12766,0.0439 -0.3125,0.1875 l 0.1875,0 c 0.0514,-0.0734 0.125,-0.16458 0.125,-0.1875 z m 3,0 c 0,-0.0404 -0.12918,0.0423 -0.3125,0.1875 l 0.1875,0 c 0.0476,-0.0672 0.125,-0.1672 0.125,-0.1875 z m 3,0 c 0,-0.0378 -0.12737,0.0383 -0.3125,0.1875 l 0.1875,0 c 0.0442,-0.0618 0.125,-0.16929 0.125,-0.1875 z m 9,0 c 0,-0.0344 -0.0984,0.0377 -0.3125,0.21875 l 0.15625,0 c 0.0549,-0.0715 0.15625,-0.20156 0.15625,-0.21875 z m 3,0 c 0,-0.0308 -0.123,0.059 -0.3125,0.21875 l 0.15625,0 c 0.0514,-0.0668 0.15625,-0.20285 0.15625,-0.21875 z m 3,0 c 0,-0.028 -0.14274,0.0761 -0.3125,0.21875 l 0.125,0 c 0.0553,-0.0706 0.1875,-0.20294 0.1875,-0.21875 z m -30.09375,0.0312 c -0.0348,0.0129 -0.13222,0.0907 -0.1875,0.125 l 0.25,0 c 0.012,-0.0274 0.0312,-0.0777 0.0312,-0.0937 0,-0.0344 -0.0402,-0.051 -0.0937,-0.0312 z m 6,0 c -0.0507,0.0226 -0.10901,0.068 -0.1875,0.125 l 0.1875,0 c 0.0267,-0.0441 0.0937,-0.10685 0.0937,-0.125 0,-0.0224 -0.0431,-0.0226 -0.0937,0 z m 264.0625,23.9375 c -0.0205,0 -0.13596,0.0932 -0.21875,0.15625 l 0,0.1875 c 0.17585,-0.21208 0.25681,-0.34375 0.21875,-0.34375 z m -343.8125,1.34375 c -0.10274,0.12853 -0.15625,0.22519 -0.15625,0.28125 0,0.20576 0.0591,0.33519 0.15625,0.375 l 0,-0.65625 z m 343.84375,1.6875 c 0,-0.0309 -0.0935,0.0295 -0.21875,0.125 l 0,0.1875 c 0.12453,-0.15354 0.21875,-0.28166 0.21875,-0.3125 z m -343.875,1.8125 c -0.0375,0.088 -0.0516,0.15625 0,0.15625 l 0,-0.15625 z m 343.875,1.1875 c 0,-0.0302 -0.0834,0.0187 -0.1875,0.0937 l 0,0.1875 c 0.10562,-0.13434 0.1875,-0.2508 0.1875,-0.28125 z m -343.90625,1.8125 c -0.0187,0.0285 -0.0937,0.11501 -0.0937,0.125 0,0.0102 0.0744,-0.0532 0.0937,-0.0625 l 0,-0.0625 z m 343.90625,1.1875 c 0,-0.0292 -0.0735,0.008 -0.15625,0.0625 l 0,0.1875 c 0.087,-0.11537 0.15625,-0.22003 0.15625,-0.25 z M 269.75,372.1875 c -0.009,0.0157 -0.0625,0.0871 -0.0625,0.0937 0,0.006 0.0561,-0.0304 0.0625,-0.0312 l 0,-0.0625 z m 343.9375,1.1875 c 0,-0.0278 -0.0633,-0.003 -0.125,0.0312 l 0,0.1875 c 0.0688,-0.0961 0.125,-0.18939 0.125,-0.21875 z m -0.0312,2.96875 c -0.0118,10e-4 -0.0436,0.0229 -0.0625,0.0312 l 0,0.1875 c 0.0512,-0.078 0.0937,-0.15894 0.0937,-0.1875 0,-0.0172 -0.0124,-0.0331 -0.0312,-0.0312 z m -0.0312,3.03125 0,0.1875 c 0.0346,-0.0601 0.0625,-0.12875 0.0625,-0.15625 0,-0.0258 -0.0286,-0.0333 -0.0625,-0.0312 z m -109.5,7.375 c -0.26674,0.29683 -0.4375,0.49894 -0.4375,0.53125 0,0.0395 0.26256,-0.17525 0.65625,-0.53125 l -0.21875,0 z m 3,0 c -0.28096,0.31282 -0.4375,0.49687 -0.4375,0.53125 0,0.0407 0.26604,-0.17981 0.65625,-0.53125 l -0.21875,0 z m 3,0 c -0.27459,0.30725 -0.4375,0.49596 -0.4375,0.53125 0,0.0422 0.26718,-0.18228 0.65625,-0.53125 l -0.21875,0 z m 3,0 c -0.26825,0.30181 -0.4375,0.49492 -0.4375,0.53125 0,0.0437 0.2732,-0.18952 0.65625,-0.53125 l -0.21875,0 z m 3.03125,0 c -0.28717,0.32708 -0.47959,0.5625 -0.4375,0.5625 0.0423,0 0.31842,-0.23194 0.6875,-0.5625 l -0.25,0 z m 3,0 c -0.28403,0.32566 -0.48161,0.5625 -0.4375,0.5625 0.0443,0 0.31921,-0.23435 0.6875,-0.5625 l -0.25,0 z m 3,0 c -0.28477,0.32866 -0.4843,0.5625 -0.4375,0.5625 0.0467,0 0.31821,-0.23532 0.6875,-0.5625 l -0.25,0 z m 2.9375,0 c -0.24172,0.2805 -0.40625,0.48882 -0.40625,0.53125 0,0.0562 0.27258,-0.16792 0.6875,-0.53125 l -0.28125,0 z m 6,0 c -0.23275,0.27647 -0.40625,0.48296 -0.40625,0.53125 0,0.0699 0.27836,-0.12135 0.75,-0.53125 l -0.34375,0 z m 2.84375,0 c -0.0687,0.0809 -0.25,0.26593 -0.25,0.28125 0,0.29436 0.21147,0.27708 0.875,-0.28125 l -0.625,0 z m 3.09375,0 c -0.20893,0.25744 -0.34375,0.44361 -0.34375,0.5 0,0.0821 0.2929,-0.14714 0.71875,-0.5 l -0.375,0 z m 2.96875,0 c -0.1854,0.23341 -0.3125,0.41048 -0.3125,0.46875 0,0.0906 0.32405,-0.1254 0.75,-0.46875 l -0.4375,0 z m 3,0 c -0.19465,0.24598 -0.3125,0.40557 -0.3125,0.46875 0,0.0957 0.29456,-0.13026 0.71875,-0.46875 l -0.40625,0 z m 3,0 c -0.19465,0.24598 -0.3125,0.40557 -0.3125,0.46875 0,0.0957 0.29456,-0.13026 0.71875,-0.46875 l -0.40625,0 z m 3,0 c -0.19465,0.24598 -0.3125,0.40557 -0.3125,0.46875 0,0.0957 0.29456,-0.13026 0.71875,-0.46875 l -0.40625,0 z m 3,0 c -0.19465,0.24598 -0.3125,0.40557 -0.3125,0.46875 0,0.0957 0.29456,-0.13026 0.71875,-0.46875 l -0.40625,0 z m 3,0 c -0.19465,0.24598 -0.3125,0.40557 -0.3125,0.46875 0,0.0957 0.29456,-0.13026 0.71875,-0.46875 l -0.40625,0 z m 3,0 c -0.19465,0.24598 -0.3125,0.40557 -0.3125,0.46875 0,0.0957 0.29456,-0.13026 0.71875,-0.46875 l -0.40625,0 z m 3.15625,0 c -0.29598,0.33419 -0.47762,0.5625 -0.4375,0.5625 0.0405,0 0.30997,-0.22197 0.6875,-0.5625 l -0.25,0 z m 2.9375,0 c -0.26167,0.29529 -0.40625,0.49485 -0.40625,0.53125 0,0.0447 0.26567,-0.18293 0.65625,-0.53125 l -0.25,0 z m 3.0625,0 c -0.28717,0.32708 -0.47959,0.5625 -0.4375,0.5625 0.0423,0 0.31842,-0.23194 0.6875,-0.5625 l -0.25,0 z m 2.9375,0 c -0.25543,0.29012 -0.40625,0.49361 -0.40625,0.53125 0,0.047 0.263,-0.18219 0.65625,-0.53125 l -0.25,0 z m 3.0625,0 c -0.28403,0.32566 -0.48161,0.5625 -0.4375,0.5625 0.0443,0 0.31921,-0.23435 0.6875,-0.5625 l -0.25,0 z m 3,0 c -0.29275,0.33564 -0.48309,0.5625 -0.4375,0.5625 0.0456,0 0.34122,-0.22621 0.71875,-0.5625 l -0.28125,0 z m 2.9375,0 c -0.25171,0.28843 -0.40625,0.49123 -0.40625,0.53125 0,0.0505 0.2618,-0.18384 0.65625,-0.53125 l -0.25,0 z m 3.0625,0 c -0.28477,0.32866 -0.4843,0.5625 -0.4375,0.5625 0.0467,0 0.31821,-0.23532 0.6875,-0.5625 l -0.25,0 z m 3,0 c -0.28477,0.32866 -0.4843,0.5625 -0.4375,0.5625 0.0467,0 0.31821,-0.23532 0.6875,-0.5625 l -0.25,0 z m 3,0 c -0.29065,0.33575 -0.48577,0.5625 -0.4375,0.5625 0.0483,0 0.33962,-0.22674 0.71875,-0.5625 l -0.28125,0 z m 2.9375,0 c -0.23544,0.27454 -0.40625,0.48846 -0.40625,0.53125 0,0.0576 0.27093,-0.16734 0.6875,-0.53125 l -0.28125,0 z m 3,0 c -0.23379,0.27545 -0.40625,0.48542 -0.40625,0.53125 0,0.0647 0.26589,-0.13646 0.71875,-0.53125 l -0.3125,0 z m 2.96875,0 c -0.21637,0.25827 -0.375,0.4521 -0.375,0.5 0,0.07 0.24121,-0.11841 0.6875,-0.5 l -0.3125,0 z m 3,0 c -0.20937,0.25457 -0.375,0.44791 -0.375,0.5 0,0.0771 0.30904,-0.12879 0.75,-0.5 l -0.375,0 z m 2.96875,0 c -0.20394,0.25394 -0.34375,0.44173 -0.34375,0.5 0,0.0865 0.32047,-0.14615 0.75,-0.5 l -0.40625,0 z m 2.9375,0 c -0.18172,0.23445 -0.28125,0.40392 -0.28125,0.46875 0,0.10529 0.33213,-0.11094 0.78125,-0.46875 l -0.5,0 z m 3.09375,0 c -0.21943,0.32441 -0.33278,0.5625 -0.21875,0.5625 0.11458,0 0.42142,-0.23517 0.8125,-0.5625 l -0.59375,0 z m -339.28125,0.40625 c -0.0142,0.0214 -0.0937,0.11767 -0.0937,0.125 0,0.0118 0.11945,-0.0999 0.15625,-0.125 l -0.0625,0 z m 3,0 c -0.015,0.0227 -0.0937,0.1172 -0.0937,0.125 0,0.0144 0.13673,-0.0884 0.1875,-0.125 l -0.0937,0 z m 3,0 c -0.0159,0.0241 -0.0937,0.11667 -0.0937,0.125 0,0.0157 0.13174,-0.0847 0.1875,-0.125 l -0.0937,0 z m 3,0 c -0.0169,0.0257 -0.0937,0.11606 -0.0937,0.125 0,0.0147 0.11113,-0.0943 0.15625,-0.125 l -0.0625,0 z m 3.0625,0 c -0.0342,0.0501 -0.14116,0.15625 -0.125,0.15625 0.0151,0 0.1292,-0.11259 0.1875,-0.15625 l -0.0625,0 z m 2.96875,0 c -0.0307,0.0468 -0.11013,0.15625 -0.0937,0.15625 0.018,0 0.14488,-0.0998 0.21875,-0.15625 l -0.125,0 z m 3,0 c -0.0355,0.0536 -0.11226,0.15625 -0.0937,0.15625 0.0197,0 0.13911,-0.0956 0.21875,-0.15625 l -0.125,0 z m 2.96875,0 c -0.0224,0.0347 -0.0937,0.11237 -0.0937,0.125 0,0.0263 0.0926,-0.0556 0.1875,-0.125 l -0.0937,0 z m 3.03125,0 -0.625,0.65625 0.6875,-0.65625 -0.0625,0 z m 2.96875,0 c -0.0264,0.0418 -0.0937,0.10914 -0.0937,0.125 0,0.0366 0.0825,-0.0235 0.21875,-0.125 l -0.125,0 z m 2.9375,0 c 0.0373,0.0752 0.12225,0.0845 0.28125,0 l -0.28125,0 z m 3.03125,0 c -0.0164,0.0313 -0.0625,0.0784 -0.0625,0.0937 0,0.0435 0.0921,-0.009 0.21875,-0.0937 l -0.15625,0 z m 2.96875,0 c -0.008,0.0188 -0.0312,0.051 -0.0312,0.0625 0,0.045 0.0747,0.006 0.1875,-0.0625 l -0.15625,0 z m 3,0 c -0.007,0.018 -0.0312,0.051 -0.0312,0.0625 0,0.0475 0.0747,0.004 0.1875,-0.0625 l -0.15625,0 z m 3,0 c -0.007,0.018 -0.0312,0.051 -0.0312,0.0625 0,0.0475 0.0747,0.004 0.1875,-0.0625 l -0.15625,0 z m 3,0 c -0.007,0.018 -0.0312,0.051 -0.0312,0.0625 0,0.0475 0.0747,0.004 0.1875,-0.0625 l -0.15625,0 z m 3,0 c -0.007,0.018 -0.0312,0.051 -0.0312,0.0625 0,0.0475 0.0747,0.004 0.1875,-0.0625 l -0.15625,0 z m 3,0 c -0.007,0.018 -0.0312,0.051 -0.0312,0.0625 0,0.0475 0.0747,0.004 0.1875,-0.0625 l -0.15625,0 z m 3,0 c -0.007,0.018 -0.0312,0.051 -0.0312,0.0625 0,0.0475 0.0747,0.004 0.1875,-0.0625 l -0.15625,0 z m 3.0625,0 c -0.0133,0.0199 -0.0937,0.11829 -0.0937,0.125 0,0.0107 0.12285,-0.10218 0.15625,-0.125 l -0.0625,0 z m 3,0 c -0.0133,0.0199 -0.0937,0.11829 -0.0937,0.125 0,0.0107 0.12285,-0.10218 0.15625,-0.125 l -0.0625,0 z m -61.09375,3.15625 52.5,0 52.5,0 0,14 0,14 -23.96875,0 -23.9375,0 -0.0937,-0.34375 -0.96875,0 0.0937,0.34375 -28.0625,0 -28.0625,0 0,-14 0,-14 z m 242,0 52,0 52,0 0,14 0,14 -52,0 -52,0 0,-14 0,-14 z"
         style="fill:#000080"
         inkscape:connector-curvature="0" />
      <g
         id="g3270">
        <path
           style="fill:none;stroke:#000000;stroke-width:1px;stroke-linecap:butt;stroke-linejoin:miter;stroke-opacity:1;marker-start:url(#Arrow1Lstart);marker-end:url(#Dot_m)"
           d="m 337.72679,405.70701 c -41.08634,6.14056 -48.66794,17.00994 -59.71052,32.18764"
           id="path2179"
           sodipodi:nodetypes="cc"
           inkscape:connector-curvature="0" />
        <text
           xml:space="preserve"
           style="font-size:12px;font-style:normal;font-weight:normal;fill:#000000;fill-opacity:1;stroke:none;font-family:Bitstream Vera Sans"
           x="223.20598"
           y="449.58368"
           id="text3360"><tspan
             sodipodi:role="line"
             id="tspan3362"
             x="223.20598"
             y="449.58368">Placas paralelas</tspan></text>
      </g>
      <rect
         y="233.45207"
         x="338.98505"
         height="22.477503"
         width="206.85378"
         id="rect3389"
         style="fill:url(#pattern6307);fill-opacity:1;stroke:#000000;stroke-width:0.99921262;stroke-linecap:round;stroke-linejoin:bevel;stroke-miterlimit:4;stroke-opacity:1;stroke-dasharray:none;stroke-dashoffset:0" />
      <path
         id="rect2178"
         d="m 280.9375,337.3125 c 8.32493,17.96297 -4.89416,22.36805 -11.0625,22.375 l -0.28125,27.46875 111,0 -0.28125,-49.5625 -46.4375,-0.125 0,39.1875 -17.5625,0 0,-39.25 -35.375,-0.0937 z"
         style="fill:url(#pattern6307);fill-opacity:1;stroke:#000000;stroke-width:0.99900001;stroke-linecap:butt;stroke-linejoin:bevel;stroke-miterlimit:4;stroke-opacity:1;stroke-dashoffset:0"
         inkscape:connector-curvature="0" />
      <path
         style="fill:url(#pattern3171);fill-opacity:1;stroke:#000000;stroke-width:0.99900001;stroke-linecap:butt;stroke-linejoin:bevel;stroke-miterlimit:4;stroke-opacity:1;stroke-dashoffset:0"
         d="m 602.73722,336.91201 c -8.32493,17.96297 4.89416,22.36805 11.0625,22.375 l 0.28125,27.46875 -111,0 0.28125,-49.5625 46.4375,-0.125 0,39.1875 17.5625,0 0,-39.25 35.375,-0.0937 z"
         id="path3164"
         inkscape:connector-curvature="0" />
      <g
         transform="translate(-53.934861,-281.36439)"
         id="g3275">
        <path
           style="fill:none;stroke:#000000;stroke-width:1px;stroke-linecap:butt;stroke-linejoin:miter;stroke-opacity:1;marker-start:url(#Arrow1Lstart);marker-end:url(#Dot_m)"
           d="m 430.31929,507.23947 c -22.56784,-48.29656 -111.7065,10.77878 -82.00483,-40.12086"
           id="path3277"
           sodipodi:nodetypes="cc"
           inkscape:connector-curvature="0" />
        <text
           xml:space="preserve"
           style="font-size:12px;font-style:normal;font-weight:normal;fill:#000000;fill-opacity:1;stroke:none;font-family:Bitstream Vera Sans"
           x="353.09494"
           y="472.20419"
           id="text3279"><tspan
             sodipodi:role="line"
             id="tspan3281"
             x="353.09494"
             y="472.20419">Sufridera</tspan></text>
      </g>
      <g
         transform="translate(281.55149,-334.02549)"
         id="g3283">
        <path
           style="fill:none;stroke:#000000;stroke-width:1px;stroke-linecap:butt;stroke-linejoin:miter;stroke-opacity:1;marker-start:url(#Arrow1Lstart);marker-end:url(#Dot_m)"
           d="m 287.00989,610.05714 c 102.59168,-1.04246 74.53175,9.33715 100.16795,-3.48592"
           id="path3285"
           sodipodi:nodetypes="cc"
           inkscape:connector-curvature="0" />
        <text
           xml:space="preserve"
           style="font-size:12px;font-style:normal;font-weight:normal;fill:#000000;fill-opacity:1;stroke:none;font-family:Bitstream Vera Sans"
           x="379.50912"
           y="602.47809"
           id="text3287"><tspan
             sodipodi:role="line"
             id="tspan3289"
             x="379.50912"
             y="602.47809">Poste</tspan></text>
      </g>
      <g
         transform="translate(276.351,-222.15196)"
         id="g3291">
        <path
           style="fill:none;stroke:#000000;stroke-width:1px;stroke-linecap:butt;stroke-linejoin:miter;stroke-opacity:1;marker-start:url(#Arrow1Lstart);marker-end:url(#Dot_m)"
           d="m 213.20585,489.99811 c 30.42512,-5.20279 133.49353,14.06587 135.10861,-22.8795"
           id="path3293"
           sodipodi:nodetypes="cc"
           inkscape:connector-curvature="0" />
        <text
           xml:space="preserve"
           style="font-size:12px;font-style:normal;font-weight:normal;fill:#000000;fill-opacity:1;stroke:none;font-family:Bitstream Vera Sans"
           x="353.09494"
           y="472.20419"
           id="text3295"><tspan
             sodipodi:role="line"
             id="tspan3297"
             x="353.09494"
             y="472.20419">Punzn</tspan></text>
      </g>
      <g
         transform="translate(-201.01287,-94.289602)"
         id="g3299">
        <path
           style="fill:none;stroke:#000000;stroke-width:1px;stroke-linecap:butt;stroke-linejoin:miter;stroke-opacity:1;marker-start:url(#Arrow1Lstart);marker-end:url(#Dot_m)"
           d="m 475.87795,441.52398 c -24.2743,-32.67477 -97.94882,-5.55236 -90.28461,21.20888"
           id="path3301"
           sodipodi:nodetypes="cc"
           inkscape:connector-curvature="0" />
        <text
           xml:space="preserve"
           style="font-size:12px;font-style:normal;font-weight:normal;fill:#000000;fill-opacity:1;stroke:none;font-family:Bitstream Vera Sans"
           x="353.09494"
           y="472.20419"
           id="text3303"><tspan
             sodipodi:role="line"
             id="tspan3305"
             x="353.09494"
             y="472.20419">Porta matriz</tspan></text>
      </g>
      <g
         transform="translate(76.53231,-336.56489)"
         id="g3307">
        <path
           style="fill:none;stroke:#000000;stroke-width:1px;stroke-linecap:butt;stroke-linejoin:miter;stroke-opacity:1;marker-start:url(#Arrow1Lstart);marker-end:url(#Dot_m)"
           d="m 328.53019,511.2259 c -41.08634,10.45178 -20.77307,-52.59456 19.78427,-44.10729"
           id="path3309"
           sodipodi:nodetypes="cc"
           inkscape:connector-curvature="0" />
        <text
           xml:space="preserve"
           style="font-size:12px;font-style:normal;font-weight:normal;fill:#000000;fill-opacity:1;stroke:none;font-family:Bitstream Vera Sans"
           x="353.09494"
           y="472.20419"
           id="text3311"><tspan
             sodipodi:role="line"
             id="tspan3313"
             x="353.09494"
             y="472.20419">Mameln</tspan></text>
      </g>
      <g
         id="g3315"
         transform="translate(-152.76961,-51.16305)">
        <path
           sodipodi:nodetypes="cc"
           id="path3317"
           d="m 505.11629,366.23526 c -52.78169,-9.28411 -104.52744,6.87393 -142.18266,11.70641"
           style="fill:none;stroke:#000000;stroke-width:1px;stroke-linecap:butt;stroke-linejoin:miter;stroke-opacity:1;marker-start:url(#Arrow1Lstart);marker-end:url(#Dot_m)"
           inkscape:connector-curvature="0" />
        <text
           id="text3319"
           y="384.48917"
           x="322.39468"
           style="font-size:12px;font-style:normal;font-weight:normal;fill:#000000;fill-opacity:1;stroke:none;font-family:Bitstream Vera Sans"
           xml:space="preserve"><tspan
             y="384.48917"
             x="322.39468"
             id="tspan3321"
             sodipodi:role="line">Matriz</tspan></text>
      </g>
      <g
         transform="translate(145.14872,-36.164976)"
         id="g3323">
        <path
           style="fill:none;stroke:#000000;stroke-width:1px;stroke-linecap:butt;stroke-linejoin:miter;stroke-opacity:1;marker-start:url(#Arrow1Lstart);marker-end:url(#Dot_m)"
           d="m 296.85838,327.16303 c -20.73921,5.27576 -17.60166,31.23842 -4.35579,60.52889 3.89791,0.0926 4.03269,3.07215 3.22854,6.80775 13.30892,26.85445 34.01666,55.33839 51.94476,72.61894"
           id="path3325"
           sodipodi:nodetypes="cccc"
           inkscape:connector-curvature="0" />
        <text
           xml:space="preserve"
           style="font-size:12px;font-style:normal;font-weight:normal;fill:#000000;fill-opacity:1;stroke:none;font-family:Bitstream Vera Sans"
           x="353.09494"
           y="472.20419"
           id="text3327"><tspan
             sodipodi:role="line"
             id="tspan3329"
             x="353.09494"
             y="472.20419">Botador</tspan></text>
      </g>
      <g
         transform="translate(-172.51087,-163.77006)"
         id="g3331">
        <path
           style="fill:none;stroke:#000000;stroke-width:1px;stroke-linecap:butt;stroke-linejoin:miter;stroke-opacity:1;marker-start:url(#Arrow1Lstart);marker-end:url(#Dot_m)"
           d="M 531.43079,455.41219 C 445.02503,400.80866 434.21294,498.1031 392.90293,470.04244"
           id="path3333"
           sodipodi:nodetypes="cc"
           inkscape:connector-curvature="0" />
        <text
           xml:space="preserve"
           style="font-size:12px;font-style:normal;font-weight:normal;fill:#000000;fill-opacity:1;stroke:none;font-family:Bitstream Vera Sans"
           x="353.09494"
           y="472.20419"
           id="text3335"><tspan
             sodipodi:role="line"
             id="tspan3337"
             x="353.09494"
             y="472.20419">Guias</tspan></text>
      </g>
      <g
         transform="translate(78.457325,-47.012489)"
         id="g3339">
        <path
           style="fill:none;stroke:#000000;stroke-width:1px;stroke-linecap:butt;stroke-linejoin:miter;stroke-opacity:1;marker-start:url(#Arrow1Lstart);marker-end:url(#Dot_m)"
           d="m 323.83858,365.50429 c -18.42663,19.95424 -27.7768,77.77692 24.47588,101.61432"
           id="path3341"
           sodipodi:nodetypes="cc"
           inkscape:connector-curvature="0" />
        <text
           xml:space="preserve"
           style="font-size:12px;font-style:normal;font-weight:normal;fill:#000000;fill-opacity:1;stroke:none;font-family:Bitstream Vera Sans"
           x="353.09494"
           y="472.20419"
           id="text3343"><tspan
             sodipodi:role="line"
             id="tspan3345"
             x="353.09494"
             y="472.20419">Pilotos</tspan></text>
        <path
           sodipodi:nodetypes="cc"
           id="path4330"
           d="m 391.08676,370.621 c -19.17358,16.98239 -83.63839,87.0841 -42.7723,96.49761"
           style="fill:none;stroke:#000000;stroke-width:1px;stroke-linecap:butt;stroke-linejoin:miter;stroke-opacity:1;marker-start:url(#Arrow1Lstart);marker-end:url(#Dot_m)"
           inkscape:connector-curvature="0" />
      </g>
      <g
         transform="translate(287.72046,-160.77653)"
         id="g3347">
        <path
           style="fill:none;stroke:#000000;stroke-width:1px;stroke-linecap:butt;stroke-linejoin:miter;stroke-opacity:1;marker-start:url(#Arrow1Lstart);marker-end:url(#Dot_m)"
           d="m 202.1067,473.16571 c 88.91219,13.26255 105.65042,-14.53437 146.20776,-6.0471"
           id="path3349"
           sodipodi:nodetypes="cc"
           inkscape:connector-curvature="0" />
        <text
           xml:space="preserve"
           style="font-size:12px;font-style:normal;font-weight:normal;fill:#000000;fill-opacity:1;stroke:none;font-family:Bitstream Vera Sans"
           x="353.09494"
           y="472.20419"
           id="text3351"><tspan
             sodipodi:role="line"
             id="tspan3353"
             x="353.09494"
             y="472.20419">Pieza</tspan></text>
      </g>
      <g
         transform="translate(-157.32444,-339.11415)"
         id="g4332">
        <path
           style="fill:none;stroke:#000000;stroke-width:1px;stroke-linecap:butt;stroke-linejoin:miter;stroke-opacity:1;marker-start:url(#Arrow1Lstart);marker-end:url(#Dot_m)"
           d="m 426.14345,548.9227 c -29.51493,-3.15055 -47.52669,2.66438 -48.47633,-19.49966"
           id="path4334"
           sodipodi:nodetypes="cc"
           inkscape:connector-curvature="0" />
        <text
           xml:space="preserve"
           style="font-size:12px;font-style:normal;font-weight:normal;fill:#000000;fill-opacity:1;stroke:none;font-family:Bitstream Vera Sans"
           x="342.97919"
           y="523.84534"
           id="text4336"><tspan
             sodipodi:role="line"
             id="tspan4338"
             x="342.97919"
             y="523.84534">Porta punzn</tspan></text>
      </g>
      <g
         transform="translate(279.7517,-460.68035)"
         id="g4340">
        <path
           style="fill:none;stroke:#000000;stroke-width:1px;stroke-linecap:butt;stroke-linejoin:miter;stroke-opacity:1;marker-start:url(#Arrow1Lstart);marker-end:url(#Dot_m)"
           d="m 294.73953,700.70476 c 102.59168,-1.04246 88.3582,-38.1983 87.40856,-60.36234"
           id="path4342"
           sodipodi:nodetypes="cc"
           inkscape:connector-curvature="0" />
        <text
           xml:space="preserve"
           style="font-size:12px;font-style:normal;font-weight:normal;fill:#000000;fill-opacity:1;stroke:none;font-family:Bitstream Vera Sans"
           x="366.57547"
           y="632.65662"
           id="text4344"><tspan
             sodipodi:role="line"
             id="tspan4346"
             x="366.57547"
             y="632.65662">Tasa</tspan></text>
      </g>
      <g
         id="g7425">
        <path
           sodipodi:nodetypes="ccccc"
           id="path5346"
           d="m 449.56603,266.41423 -15.17228,2.80971 c -0.91498,0.15075 -0.79009,2.40774 0.23077,2.25607 l 15.17228,-2.8097 c 0.95963,-0.10296 0.66498,-2.32851 -0.23077,-2.25608 z"
           style="fill:url(#linearGradient3156);fill-opacity:1;stroke:none"
           inkscape:connector-curvature="0" />
        <path
           sodipodi:nodetypes="ccccc"
           id="path5354"
           d="m 449.56603,260.63757 -15.17229,2.80971 c -0.91497,0.15075 -0.79008,2.40774 0.23077,2.25607 l 15.17229,-2.80971 c 0.95962,-0.10295 0.66497,-2.3285 -0.23077,-2.25607 z"
           style="fill:url(#linearGradient3158);fill-opacity:1;stroke:none"
           inkscape:connector-curvature="0" />
        <path
           id="path5358"
           d="m 434.4375,257.8125 c -0.76693,0.18519 -0.96215,2.15348 -0.0625,2.25 l 15.15625,2.8125 c 0.17842,0.0265 0.31458,-0.0597 0.4375,-0.15625 0.43101,-0.15568 0.75001,-0.54676 0.75,-1.03125 0,-0.61785 -0.50714,-1.12499 -1.125,-1.125 -0.0211,0 -0.0417,-10e-4 -0.0625,0 l -14.9375,-2.75 c -0.056,-0.005 -0.10512,-0.0124 -0.15625,0 z"
           style="fill:url(#linearGradient3160);fill-opacity:1;stroke:none"
           inkscape:connector-curvature="0" />
        <path
           id="rect4348"
           d="m 434.4375,269.25 c -0.11266,0.0272 -0.19464,0.1264 -0.28125,0.21875 -0.329,0.19499 -0.5625,0.52757 -0.5625,0.9375 0,0.33269 0.14434,0.60743 0.375,0.8125 0.0964,0.14536 0.22171,0.26145 0.40625,0.28125 l 15.15625,2.8125 c 1.02085,0.15167 1.16496,-2.09925 0.25,-2.25 l -15.0625,-2.78125 -0.125,-0.0312 c -0.056,-0.005 -0.10512,-0.0124 -0.15625,0 z"
           style="fill:url(#linearGradient3162);fill-opacity:1;stroke:none"
           inkscape:connector-curvature="0" />
        <path
           id="path5350"
           d="m 434.59375,263.5 c -0.055,0 -0.10336,0.0236 -0.15625,0.0312 -0.54118,0.0786 -0.96875,0.5309 -0.96875,1.09375 0,0.39507 0.22187,0.70703 0.53125,0.90625 0.0948,0.12585 0.20584,0.23185 0.375,0.25 l 15.15625,2.8125 c 0.25521,0.0379 0.45278,-0.0886 0.59375,-0.28125 0.2715,-0.20429 0.46875,-0.50931 0.46875,-0.875 0,-0.3657 -0.19725,-0.6707 -0.46875,-0.875 -0.0942,-0.11568 -0.1956,-0.19434 -0.34375,-0.21875 l -14.71875,-2.71875 -0.0312,-0.0312 c -0.13389,-0.0567 -0.28304,-0.0937 -0.4375,-0.0937 z"
           style="fill:url(#linearGradient3164);fill-opacity:1;stroke:none"
           inkscape:connector-curvature="0" />
        <path
           style="fill:url(#linearGradient3166);fill-opacity:1;stroke:none"
           d="m 434.4375,257.8125 c -0.76693,0.18519 -0.96215,2.15348 -0.0625,2.25 l 9.125,1.6875 -9.09375,1.6875 c -0.15249,0.0251 -0.27961,0.12876 -0.375,0.25 -0.32802,0.19198 -0.5625,0.53081 -0.5625,0.9375 0,0.39507 0.22187,0.70703 0.53125,0.90625 0.0948,0.12585 0.20584,0.23185 0.375,0.25 l 9.28125,1.71875 -9.25,1.71875 c -0.21408,0.0353 -0.36668,0.1982 -0.46875,0.40625 -0.007,0.0143 -0.0248,0.0165 -0.0312,0.0312 -0.18683,0.19168 -0.3125,0.45823 -0.3125,0.75 0,0.33269 0.14434,0.60743 0.375,0.8125 0.0964,0.14536 0.22171,0.26145 0.40625,0.28125 l 15.15625,2.8125 c 1.02085,0.15167 1.16496,-2.09925 0.25,-2.25 l -9.1875,-1.6875 9.1875,-1.71875 c 0.27312,-0.0293 0.44628,-0.22873 0.53125,-0.5 0.17002,-0.18911 0.28125,-0.44448 0.28125,-0.71875 0,-0.3657 -0.19725,-0.6707 -0.46875,-0.875 -0.0942,-0.11568 -0.1956,-0.19434 -0.34375,-0.21875 l -9.2813,-1.7187 9.28125,-1.71875 c 0.19672,-0.0211 0.34057,-0.15107 0.4375,-0.3125 0.30234,-0.19533 0.50001,-0.51866 0.5,-0.90625 0,-0.61785 -0.50714,-1.12499 -1.125,-1.125 -0.0211,0 -0.0417,-10e-4 -0.0625,0 l -14.9375,-2.75 c -0.056,-0.005 -0.10512,-0.0124 -0.15625,0 z"
           id="path5420"
           inkscape:connector-curvature="0" />
      </g>
      <g
         id="g8417"
         transform="translate(-198.28101,-290.25369)">
        <path
           sodipodi:nodetypes="cc"
           id="path8419"
           d="m 627.3336,558.98221 c -29.51493,-3.15055 -151.71445,1.94584 -166.31628,-16.62552"
           style="fill:none;stroke:#000000;stroke-width:1px;stroke-linecap:butt;stroke-linejoin:miter;stroke-opacity:1;marker-start:url(#Arrow1Lstart);marker-end:url(#Dot_m)"
           inkscape:connector-curvature="0" />
        <text
           id="text8421"
           y="535.34192"
           x="429.92206"
           style="font-size:12px;font-style:normal;font-weight:normal;fill:#000000;fill-opacity:1;stroke:none;font-family:Bitstream Vera Sans"
           xml:space="preserve"><tspan
             y="535.34192"
             x="429.92206"
             id="tspan8423"
             sodipodi:role="line">Resorte</tspan></text>
      </g>
      <rect
         y="297.22549"
         x="499.69852"
         height="3.9376345"
         width="18.799017"
         id="rect2257"
         style="fill:url(#pattern6307);fill-opacity:1;stroke:none" />
      <rect
         style="fill:url(#pattern6307);fill-opacity:1;stroke:none"
         id="rect3232"
         width="18.799017"
         height="3.9376345"
         x="499.69852"
         y="297.22549" />
      <rect
         y="297.16199"
         x="365.81894"
         height="3.9376345"
         width="18.799017"
         id="rect3234"
         style="fill:url(#pattern3236);fill-opacity:1;stroke:none" />
    </g>
  </g>
</svg>
